# This file uses meters as units for non-parametric coordinates.

mtllib wall_nopillar.mtl
g default
v 0.000000 0.000000 -200.000000
v 17.500000 0.000000 -200.000000
v 0.000000 100.000000 -200.000000
v 17.500000 100.000000 -200.000000
v 0.000000 100.000000 -300.000000
v 17.500000 100.000000 -300.000000
v 0.000000 0.000000 -300.000000
v 17.500000 0.000000 -300.000000
v 17.500000 0.000000 -200.000000
v 17.500000 0.000000 -200.000000
v 17.500000 100.000000 -200.000000
v 17.500000 100.000000 -200.000000
v 0.000000 100.000000 -229.166701
v 0.000000 0.000000 -229.166698
v 17.500000 0.000000 -229.166698
v 17.500000 100.000000 -229.166701
v 0.000000 100.000000 -270.833325
v 0.000000 0.000000 -270.833325
v 17.500000 0.000000 -270.833325
v 17.500000 100.000000 -270.833325
v 0.000000 100.000000 -250.000014
v 0.000000 0.000000 -250.000010
v 17.500000 0.000000 -250.000010
v 17.500000 100.000000 -250.000014
v 0.000000 78.498840 -229.166701
v 0.000000 78.498840 -250.000014
v 0.000000 78.498840 -270.833325
v 0.000000 50.000033 -229.166698
v 0.000000 50.000033 -250.000014
v 0.000000 50.000033 -270.833325
v 0.000000 21.501169 -229.166698
v 0.000000 21.501169 -250.000010
v 0.000000 21.501169 -270.833325
v 17.500000 21.501155 -229.166698
v 17.500000 21.501155 -250.000010
v 17.500000 21.501155 -270.833325
v 17.500000 49.999962 -229.166698
v 17.500000 49.999962 -250.000010
v 17.500000 49.999962 -270.833325
v 17.500000 78.498826 -229.166698
v 17.500000 78.498826 -250.000014
v 17.500000 78.498826 -270.833325
v 0.000000 76.498842 -231.166701
v 0.000000 76.498842 -248.000016
v 0.000000 52.000031 -248.000016
v 0.000000 52.000051 -231.166699
v 0.000000 76.498842 -252.000012
v 0.000000 76.498847 -268.833327
v 0.000000 52.000031 -268.833327
v 0.000000 52.000074 -252.000012
v 0.000000 48.000035 -231.166699
v 0.000000 48.000035 -248.000016
v 0.000000 23.501170 -248.000011
v 0.000000 23.501170 -231.166699
v 0.000000 48.000035 -252.000012
v 0.000000 48.000035 -268.833327
v 0.000000 23.501170 -268.833327
v 0.000000 23.501170 -252.000008
v 17.499998 47.999964 -231.166689
v 17.499998 47.999964 -248.000002
v 17.499997 23.501155 -231.166687
v 17.499997 23.501155 -248.000000
v 17.499993 47.999964 -252.000008
v 17.499993 47.999964 -268.833323
v 17.499993 23.501155 -252.000008
v 17.499993 23.501155 -268.833323
v 17.499993 76.498828 -231.166666
v 17.499993 76.498828 -247.999983
v 17.499993 51.999960 -231.166666
v 17.499993 51.999960 -247.999978
v 17.499993 76.498828 -252.000008
v 17.499993 76.498828 -268.833323
v 17.499993 51.999960 -252.000008
v 17.499993 51.999960 -268.833323
vt 0.375000 0.000000
vt 0.625000 0.000000
vt 0.375000 0.250000
vt 0.625000 0.250000
vt 0.375000 0.500000
vt 0.625000 0.500000
vt 0.375000 0.750000
vt 0.625000 0.750000
vt 0.375000 1.000000
vt 0.625000 1.000000
vt 0.875000 0.000000
vt 0.875000 0.250000
vt 0.125000 0.000000
vt 0.125000 0.250000
vt 0.625000 0.000000
vt 0.875000 0.000000
vt 0.875000 0.250000
vt 0.625000 0.250000
vt 0.302083 0.250000
vt 0.375000 0.322917
vt 0.302083 0.000000
vt 0.375000 0.927083
vt 0.625000 0.927083
vt 0.697917 0.000000
vt 0.625000 0.322917
vt 0.697917 0.250000
vt 0.197917 0.250000
vt 0.375000 0.427083
vt 0.197917 0.000000
vt 0.375000 0.822917
vt 0.625000 0.822917
vt 0.802083 0.000000
vt 0.625000 0.427083
vt 0.802083 0.250000
vt 0.250000 0.250000
vt 0.375000 0.375000
vt 0.250000 0.000000
vt 0.375000 0.875000
vt 0.625000 0.875000
vt 0.750000 0.000000
vt 0.625000 0.375000
vt 0.750000 0.250000
vt 0.302083 0.203125
vt 0.250000 0.203125
vt 0.197917 0.203125
vt 0.302083 0.125000
vt 0.250000 0.125000
vt 0.197917 0.125000
vt 0.302083 0.046875
vt 0.250000 0.046875
vt 0.197917 0.046875
vt 0.697917 0.046875
vt 0.750000 0.046875
vt 0.802083 0.046875
vt 0.697917 0.125000
vt 0.750000 0.125000
vt 0.802083 0.125000
vt 0.697917 0.203125
vt 0.750000 0.203125
vt 0.802083 0.203125
vt 0.302083 0.203125
vt 0.250000 0.203125
vt 0.250000 0.125000
vt 0.302083 0.125000
vt 0.250000 0.203125
vt 0.197917 0.203125
vt 0.197917 0.125000
vt 0.250000 0.125000
vt 0.302083 0.125000
vt 0.250000 0.125000
vt 0.250000 0.046875
vt 0.302083 0.046875
vt 0.250000 0.125000
vt 0.197917 0.125000
vt 0.197917 0.046875
vt 0.250000 0.046875
vt 0.750000 0.125000
vt 0.697917 0.125000
vt 0.697917 0.046875
vt 0.750000 0.046875
vt 0.802083 0.125000
vt 0.750000 0.125000
vt 0.750000 0.046875
vt 0.802083 0.046875
vt 0.750000 0.203125
vt 0.697917 0.203125
vt 0.697917 0.125000
vt 0.750000 0.125000
vt 0.802083 0.203125
vt 0.750000 0.203125
vt 0.750000 0.125000
vt 0.802083 0.125000
vt 0.000001 0.000000
vt 1.000000 0.000000
vt 0.999997 0.816364
vt 0.000000 0.816364
vt 0.000000 0.000000
vt 0.841666 0.000000
vt 0.841666 1.000000
vt 0.000000 1.000000
vt 0.000000 0.000000
vt 0.999999 0.000000
vt 1.000000 0.816364
vt 0.000003 0.816364
vt 0.000000 0.000000
vt 0.841666 0.000000
vt 0.841666 1.000000
vt 0.000000 1.000000
vt 0.000000 0.000000
vt 0.841666 0.000000
vt 0.841666 1.000000
vt 0.000000 1.000000
vt 0.000000 0.000000
vt 0.999997 0.000000
vt 1.000000 0.816364
vt 0.000001 0.816364
vt 0.000000 0.000000
vt 0.841666 0.000000
vt 0.841666 1.000000
vt 0.000000 1.000000
vt 0.000001 0.000000
vt 1.000000 0.000000
vt 0.999997 0.816364
vt 0.000000 0.816364
vt 0.000000 0.000000
vt 0.999999 0.000000
vt 1.000000 0.816364
vt 0.000003 0.816364
vt 0.000000 0.000000
vt 0.841666 0.000000
vt 0.841666 1.000000
vt 0.000000 1.000000
vt 0.000003 0.000000
vt 1.000000 0.000000
vt 0.999999 0.816364
vt 0.000000 0.816364
vt 0.000000 0.000000
vt 0.841666 0.000000
vt 0.841666 1.000000
vt 0.000000 1.000000
vt 0.000000 0.000000
vt 0.841666 0.000000
vt 0.841666 1.000000
vt 0.000000 1.000000
vt 0.000000 0.000000
vt 0.999997 0.000000
vt 1.000000 0.816364
vt 0.000001 0.816364
vt 0.000000 0.000000
vt 0.841666 0.000000
vt 0.841666 1.000000
vt 0.000000 1.000000
vt 0.000003 0.000000
vt 1.000000 0.000000
vt 0.999999 0.816364
vt 0.000000 0.816364
vn 0.000000 0.000000 1.000000
vn 0.000000 0.000000 1.000000
vn 0.000000 0.000000 1.000000
vn 0.000000 0.000000 1.000000
vn 0.000000 1.000000 0.000000
vn 0.000000 1.000000 0.000000
vn 0.000000 1.000000 0.000000
vn 0.000000 1.000000 0.000000
vn 0.000000 0.000000 -1.000000
vn 0.000000 0.000000 -1.000000
vn 0.000000 0.000000 -1.000000
vn 0.000000 0.000000 -1.000000
vn 0.000000 -1.000000 0.000000
vn 0.000000 -1.000000 0.000000
vn 0.000000 -1.000000 0.000000
vn 0.000000 -1.000000 0.000000
vn -1.000000 0.000000 0.000000
vn -1.000000 0.000000 0.000000
vn -1.000000 0.000000 0.000000
vn -1.000000 0.000000 0.000000
vn -1.000000 0.000000 0.000000
vn -1.000000 0.000000 0.000000
vn -1.000000 0.000000 0.000000
vn 0.000000 0.000000 0.000000
vn 0.000000 0.000000 0.000000
vn 0.000000 0.000000 0.000000
vn 1.000000 0.000000 0.000000
vn 1.000000 0.000000 -0.000000
vn 1.000000 0.000000 -0.000000
vn 1.000000 -0.000000 -0.000000
vn 1.000000 0.000000 0.000000
vn 0.000000 0.000000 0.000000
vn 0.000000 0.000000 0.000000
vn 0.000000 0.000000 0.000000
vn 0.000000 0.000000 0.000000
vn 0.000000 0.000000 0.000000
vn 0.000000 0.000000 0.000000
vn 0.000000 0.000000 0.000000
vn -1.000000 0.000000 0.000000
vn -1.000000 0.000000 0.000000
vn 0.000000 -1.000000 0.000000
vn 0.000000 -1.000000 0.000000
vn 1.000000 -0.000000 0.000000
vn 1.000000 0.000000 0.000000
vn 0.000000 1.000000 0.000000
vn 0.000000 1.000000 0.000000
vn -1.000000 0.000000 0.000000
vn -1.000000 0.000000 0.000000
vn -1.000000 0.000000 0.000000
vn -1.000000 0.000000 0.000000
vn -1.000000 0.000000 0.000000
vn -1.000000 0.000000 0.000000
vn -1.000000 0.000000 0.000000
vn 0.000000 -1.000000 0.000000
vn 0.000000 -1.000000 0.000000
vn 0.000000 -1.000000 0.000000
vn 0.000000 -1.000000 0.000000
vn 1.000000 0.000000 0.000000
vn 1.000000 -0.000000 0.000000
vn 1.000000 0.000000 0.000000
vn 1.000000 0.000000 0.000000
vn 1.000000 0.000000 0.000000
vn 1.000000 0.000000 0.000000
vn 1.000000 0.000000 0.000000
vn 0.000000 1.000000 0.000000
vn 0.000000 1.000000 0.000000
vn 0.000000 1.000000 0.000000
vn 0.000000 1.000000 0.000000
vn -1.000000 0.000000 0.000000
vn -1.000000 0.000000 0.000000
vn 1.000000 0.000000 -0.000000
vn 1.000000 0.000000 0.000000
vn -0.252941 -0.547893 0.797392
vn -0.252938 -0.547895 -0.797392
vn -1.000000 0.000000 0.000000
vn -0.252938 0.547893 0.797393
vn -0.252935 0.547893 -0.797394
vn -0.252940 -0.547894 0.797392
vn -0.252939 -0.547894 -0.797392
vn -0.252937 0.547893 0.797393
vn -0.252936 0.547893 -0.797394
vn -0.252942 -0.547894 0.797391
vn -0.252941 -0.547894 -0.797391
vn -0.252939 0.547893 0.797392
vn -0.252938 0.547894 -0.797392
vn -0.252942 -0.547894 0.797391
vn -0.252942 -0.547894 -0.797391
vn -0.252939 0.547893 0.797392
vn -0.252939 0.547893 -0.797392
vn 1.000000 0.000000 -0.000000
vn 0.252936 -0.547893 -0.797394
vn 0.252936 -0.547893 0.797393
vn 0.252939 0.547893 -0.797392
vn 0.252939 0.547894 0.797392
vn 0.252936 -0.547893 -0.797393
vn 0.252937 -0.547893 0.797393
vn 0.252939 0.547894 -0.797392
vn 0.252940 0.547894 0.797392
vn 0.252938 -0.547893 -0.797393
vn 0.252939 -0.547894 0.797392
vn 0.252941 0.547894 -0.797391
vn 0.252942 0.547895 0.797390
vn 0.252939 -0.547894 -0.797392
vn 0.252939 -0.547893 0.797392
vn 0.252943 0.547894 -0.797391
vn 0.252943 0.547894 0.797391
s off
g pCube2
usemtl initialShadingGroup
f 1/1/1 2/2/2 4/4/3 3/3/4
s 1
f 3/3/5 4/4/6 16/25/7 13/20/8
s off
f 5/5/9 6/6/10 8/8/11 7/7/12
s 2
f 14/22/13 15/23/14 2/10/15 1/9/16
s 3
f 13/19/17 25/43/18 28/46/19 31/49/20 14/21/21 1/1/22 3/3/23
f 9/16/24 10/15/25 2/2/26 15/24/27 34/52/28 37/55/29 40/58/30 16/26/31 4/4/32 12/18/33 11/17/34
s off
f 4/4/35 2/2/36 10/15/37 12/18/38
s 3
f 31/49/20 32/50/39 22/37/40 14/21/21
s 2
f 22/38/41 23/39/42 15/23/14 14/22/13
s 3
f 16/26/31 40/58/30 41/59/43 24/42/44
s 1
f 13/20/8 16/25/7 24/41/45 21/36/46
s 3
f 7/13/47 18/29/48 33/51/49 30/48/50 27/45/51 17/27/52 5/14/53
s 2
f 7/7/54 8/8/55 19/31/56 18/30/57
s 3
f 20/34/58 42/60/59 39/57/60 36/54/61 19/32/62 8/11/63 6/12/64
s 1
f 17/28/65 20/33/66 6/6/67 5/5/68
s 3
f 32/50/39 33/51/49 18/29/48 22/37/40
s 2
f 18/30/57 19/31/56 23/39/42 22/38/41
s 3
f 24/42/44 41/59/43 42/60/59 20/34/58
s 1
f 21/36/46 24/41/45 20/33/66 17/28/65
s 3
f 21/35/69 26/44/70 25/43/18 13/19/17
f 17/27/52 27/45/51 26/44/70 21/35/69
f 35/53/71 34/52/28 15/24/27 23/40/72
f 36/54/61 35/53/71 23/40/72 19/32/62
f 25/43/18 26/44/70 44/62/73 43/61/74
f 26/44/70 29/47/75 45/63/76 44/62/73
f 29/47/75 28/46/19 46/64/77 45/63/76
f 28/46/19 25/43/18 43/61/74 46/64/77
f 26/44/70 27/45/51 48/66/78 47/65/79
f 27/45/51 30/48/50 49/67/80 48/66/78
f 30/48/50 29/47/75 50/68/81 49/67/80
f 29/47/75 26/44/70 47/65/79 50/68/81
f 28/46/19 29/47/75 52/70/82 51/69/83
f 29/47/75 32/50/39 53/71/84 52/70/82
f 32/50/39 31/49/20 54/72/85 53/71/84
f 31/49/20 28/46/19 51/69/83 54/72/85
f 29/47/75 30/48/50 56/74/86 55/73/87
f 30/48/50 33/51/49 57/75/88 56/74/86
f 33/51/49 32/50/39 58/76/89 57/75/88
f 32/50/39 29/47/75 55/73/87 58/76/89
f 38/56/90 37/55/29 59/78/91 60/77/92
f 37/55/29 34/52/28 61/79/93 59/78/91
f 34/52/28 35/53/71 62/80/94 61/79/93
f 35/53/71 38/56/90 60/77/92 62/80/94
f 39/57/60 38/56/90 63/82/95 64/81/96
f 38/56/90 35/53/71 65/83/97 63/82/95
f 35/53/71 36/54/61 66/84/98 65/83/97
f 36/54/61 39/57/60 64/81/96 66/84/98
f 41/59/43 40/58/30 67/86/99 68/85/100
f 40/58/30 37/55/29 69/87/101 67/86/99
f 37/55/29 38/56/90 70/88/102 69/87/101
f 38/56/90 41/59/43 68/85/100 70/88/102
f 42/60/59 41/59/43 71/90/103 72/89/104
f 41/59/43 38/56/90 73/91/105 71/90/103
f 38/56/90 39/57/60 74/92/106 73/91/105
f 39/57/60 42/60/59 72/89/104 74/92/106
f 67/93/99 69/94/101 46/95/77 43/96/74
f 43/97/74 44/98/73 68/99/100 67/100/99
f 70/101/102 68/102/100 44/103/73 45/104/76
f 69/105/101 70/106/102 45/107/76 46/108/77
f 49/109/80 50/110/81 73/111/105 74/112/106
f 48/113/78 49/114/80 74/115/106 72/116/104
f 72/117/104 71/118/103 47/119/79 48/120/78
f 71/121/103 73/122/105 50/123/81 47/124/79
f 56/125/86 57/126/88 66/127/98 64/128/96
f 55/129/87 56/130/86 64/131/96 63/132/95
f 63/133/95 65/134/97 58/135/89 55/136/87
f 65/137/97 66/138/98 57/139/88 58/140/89
f 61/141/93 62/142/94 53/143/84 54/144/85
f 62/145/94 60/146/92 52/147/82 53/148/84
f 60/149/92 59/150/91 51/151/83 52/152/82
f 59/153/91 61/154/93 54/155/85 51/156/83
