# This file uses meters as units for non-parametric coordinates.

mtllib wall_pillarnowindow.mtl
g default
v 0.000000 0.000000 -400.000000
v 17.500000 0.000000 -400.000000
v 0.000000 100.000000 -400.000000
v 17.500000 100.000000 -400.000000
v 0.000000 100.000000 -500.000000
v 17.500000 100.000000 -500.000000
v 0.000000 0.000000 -500.000000
v 17.500000 0.000000 -500.000000
v 17.500000 0.000000 -419.398861
v 17.500000 0.000000 -400.000000
v 17.500000 100.000000 -419.398861
v 17.500000 100.000000 -400.000000
v 26.250000 0.000000 -419.398861
v 26.250000 0.000000 -400.000000
v 26.250000 100.000000 -419.398861
v 26.250000 100.000000 -400.000000
v 0.000000 100.000000 -429.166701
v 0.000000 0.000000 -429.166698
v 17.500000 0.000000 -429.166698
v 17.500000 100.000000 -429.166701
v 0.000000 100.000000 -470.833325
v 0.000000 0.000000 -470.833325
v 17.500000 0.000000 -470.833325
v 17.500000 100.000000 -470.833325
v 0.000000 100.000000 -450.000014
v 0.000000 0.000000 -450.000010
v 17.500000 0.000000 -450.000010
v 17.500000 100.000000 -450.000014
v 0.000000 50.000005 -450.000019
v 17.500000 49.999995 -450.000010
vt 0.375000 0.000000
vt 0.625000 0.000000
vt 0.375000 0.250000
vt 0.625000 0.250000
vt 0.375000 0.500000
vt 0.625000 0.500000
vt 0.375000 0.750000
vt 0.625000 0.750000
vt 0.375000 1.000000
vt 0.625000 1.000000
vt 0.875000 0.000000
vt 0.875000 0.250000
vt 0.125000 0.000000
vt 0.125000 0.250000
vt 0.625000 0.000000
vt 0.875000 0.000000
vt 0.875000 0.250000
vt 0.625000 0.250000
vt 0.625000 0.000000
vt 0.875000 0.000000
vt 0.875000 0.250000
vt 0.625000 0.250000
vt 0.302083 0.250000
vt 0.375000 0.322917
vt 0.302083 0.000000
vt 0.375000 0.927083
vt 0.625000 0.927083
vt 0.697917 0.000000
vt 0.625000 0.322917
vt 0.697917 0.250000
vt 0.197917 0.250000
vt 0.375000 0.427083
vt 0.197917 0.000000
vt 0.375000 0.822917
vt 0.625000 0.822917
vt 0.802083 0.000000
vt 0.625000 0.427083
vt 0.802083 0.250000
vt 0.250000 0.250000
vt 0.375000 0.375000
vt 0.250000 0.000000
vt 0.375000 0.875000
vt 0.625000 0.875000
vt 0.750000 0.000000
vt 0.625000 0.375000
vt 0.750000 0.250000
vt 0.250000 0.125000
vt 0.750000 0.125000
vn 0.000000 0.000000 1.000000
vn 0.000000 0.000000 1.000000
vn 0.000000 0.000000 1.000000
vn 0.000000 0.000000 1.000000
vn 0.000000 1.000000 0.000000
vn 0.000000 1.000000 0.000000
vn 0.000000 1.000000 0.000000
vn 0.000000 1.000000 0.000000
vn 0.000000 0.000000 -1.000000
vn 0.000000 0.000000 -1.000000
vn 0.000000 0.000000 -1.000000
vn 0.000000 0.000000 -1.000000
vn 0.000000 -1.000000 0.000000
vn 0.000000 -1.000000 0.000000
vn 0.000000 -1.000000 0.000000
vn 0.000000 -1.000000 0.000000
vn 1.000000 0.000000 0.000000
vn 1.000000 0.000000 0.000000
vn 1.000000 0.000000 0.000000
vn 1.000000 0.000000 0.000000
vn -1.000000 0.000000 0.000000
vn -1.000000 0.000000 0.000000
vn -1.000000 0.000000 0.000000
vn -1.000000 0.000000 0.000000
vn -1.000000 0.000000 0.000000
vn 1.000000 0.000000 0.000000
vn 0.000000 0.000000 0.000000
vn 0.000000 0.000000 0.000000
vn 1.000000 0.000000 0.000000
vn 1.000000 0.000000 0.000000
vn 1.000000 0.000000 0.000000
vn 0.000000 0.000000 0.000000
vn 0.000000 0.000000 0.000000
vn 1.000000 0.000000 0.000000
vn 0.000000 0.000000 0.000000
vn 0.000000 0.000000 0.000000
vn 0.000000 0.000000 0.000000
vn 0.000000 0.000000 0.000000
vn 0.000000 -1.000000 0.000000
vn 0.000000 -1.000000 0.000000
vn 0.000000 -1.000000 0.000000
vn 0.000000 -1.000000 0.000000
vn 0.000000 0.000000 -1.000000
vn 0.000000 0.000000 -1.000000
vn 0.000000 0.000000 -1.000000
vn 0.000000 0.000000 -1.000000
vn 0.000000 1.000000 0.000000
vn 0.000000 1.000000 0.000000
vn 0.000000 1.000000 0.000000
vn 0.000000 1.000000 0.000000
vn 0.000000 0.000000 1.000000
vn 0.000000 0.000000 1.000000
vn 0.000000 0.000000 1.000000
vn 0.000000 0.000000 1.000000
vn -1.000000 0.000000 0.000000
vn 0.000000 -1.000000 0.000000
vn 0.000000 -1.000000 0.000000
vn 1.000000 0.000000 0.000000
vn 0.000000 1.000000 0.000000
vn 0.000000 1.000000 0.000000
vn -1.000000 0.000000 0.000000
vn -1.000000 0.000000 0.000000
vn -1.000000 0.000000 0.000000
vn -1.000000 0.000000 0.000000
vn 0.000000 -1.000000 0.000000
vn 0.000000 -1.000000 0.000000
vn 0.000000 -1.000000 0.000000
vn 0.000000 -1.000000 0.000000
vn 1.000000 0.000000 0.000000
vn 1.000000 0.000000 0.000000
vn 1.000000 0.000000 0.000000
vn 1.000000 0.000000 0.000000
vn 0.000000 1.000000 0.000000
vn 0.000000 1.000000 0.000000
vn 0.000000 1.000000 0.000000
vn 0.000000 1.000000 0.000000
vn -1.000000 0.000000 0.000000
vn 1.000000 0.000000 0.000000
s off
g pCube3
usemtl initialShadingGroup
f 1/1/1 2/2/2 4/4/3 3/3/4
s 1
f 3/3/5 4/4/6 20/29/7 17/24/8
s off
f 5/5/9 6/6/10 8/8/11 7/7/12
s 2
f 18/26/13 19/27/14 2/10/15 1/9/16
s off
f 14/19/17 13/20/18 15/21/19 16/22/20
s 3
f 17/23/21 29/47/22 18/25/23 1/1/24 3/3/25
s 4
f 9/16/26 10/15/27 2/2/28 19/28/29 30/48/30 20/30/31 4/4/32 12/18/33 11/17/34
s off
f 4/4/35 2/2/36 10/15/37 12/18/38
f 10/15/39 9/16/40 13/20/41 14/19/42
f 9/16/43 11/17/44 15/21/45 13/20/46
f 11/17/47 12/18/48 16/22/49 15/21/50
f 12/18/51 10/15/52 14/19/53 16/22/54
s 3
f 29/47/22 26/41/55 18/25/23
s 2
f 26/42/56 27/43/57 19/27/14 18/26/13
s 4
f 20/30/31 30/48/30 28/46/58
s 1
f 17/24/8 20/29/7 28/45/59 25/40/60
s 3
f 7/13/61 22/33/62 29/47/22 21/31/63 5/14/64
s 2
f 7/7/65 8/8/66 23/35/67 22/34/68
s 4
f 24/38/69 30/48/30 23/36/70 8/11/71 6/12/72
s 1
f 21/32/73 24/37/74 6/6/75 5/5/76
s 3
f 29/47/22 22/33/62 26/41/55
s 2
f 22/34/68 23/35/67 27/43/57 26/42/56
s 4
f 28/46/58 30/48/30 24/38/69
s 1
f 25/40/60 28/45/59 24/37/74 21/32/73
s 3
f 25/39/77 29/47/22 17/23/21
f 21/31/63 29/47/22 25/39/77
s 4
f 30/48/30 19/28/29 27/44/78
f 30/48/30 27/44/78 23/36/70
