# This file uses meters as units for non-parametric coordinates.

mtllib wall_pillar.mtl
g default
v 0.000000 0.000000 0.000000
v 17.500000 0.000000 0.000000
v 0.000000 100.000000 0.000000
v 17.500000 100.000000 0.000000
v 0.000000 100.000000 -100.000000
v 17.500000 100.000000 -100.000000
v 0.000000 0.000000 -100.000000
v 17.500000 0.000000 -100.000000
v 17.500000 0.000000 -19.398861
v 17.500000 0.000000 0.000000
v 17.500000 100.000000 -19.398861
v 17.500000 100.000000 0.000000
v 26.250000 0.000000 -19.398861
v 26.250000 0.000000 0.000000
v 26.250000 100.000000 -19.398861
v 26.250000 100.000000 0.000000
v 0.000000 100.000000 -29.166701
v 0.000000 0.000000 -29.166698
v 17.500000 0.000000 -29.166698
v 17.500000 100.000000 -29.166701
v 0.000000 100.000000 -70.833325
v 0.000000 0.000000 -70.833325
v 17.500000 0.000000 -70.833325
v 17.500000 100.000000 -70.833325
v 0.000000 100.000000 -50.000014
v 0.000000 0.000000 -50.000010
v 17.500000 0.000000 -50.000010
v 17.500000 100.000000 -50.000014
v 0.000000 78.498840 -29.166701
v 0.000000 78.498840 -50.000014
v 0.000000 78.498840 -70.833325
v 0.000000 50.000033 -29.166698
v 0.000000 50.000033 -50.000014
v 0.000000 50.000033 -70.833325
v 0.000000 21.501169 -29.166698
v 0.000000 21.501169 -50.000010
v 0.000000 21.501169 -70.833325
v 17.500000 21.501155 -29.166698
v 17.500000 21.501155 -50.000010
v 17.500000 21.501155 -70.833325
v 17.500000 49.999962 -29.166698
v 17.500000 49.999962 -50.000010
v 17.500000 49.999962 -70.833325
v 17.500000 78.498826 -29.166698
v 17.500000 78.498826 -50.000014
v 17.500000 78.498826 -70.833325
v 0.000000 76.498842 -31.166701
v 0.000000 76.498842 -48.000016
v 0.000000 52.000031 -48.000016
v 0.000000 52.000036 -31.166699
v 0.000000 76.498842 -52.000012
v 0.000000 76.498842 -68.833327
v 0.000000 52.000031 -68.833327
v 0.000000 52.000031 -52.000012
v 0.000000 48.000035 -31.166699
v 0.000000 48.000035 -48.000016
v 0.000000 23.501170 -48.000011
v 0.000000 23.501170 -31.166699
v 0.000000 48.000035 -52.000012
v 0.000000 48.000035 -68.833327
v 0.000000 23.501170 -68.833327
v 0.000000 23.501170 -52.000008
v 17.499999 47.999964 -31.166697
v 17.499999 47.999964 -48.000009
v 17.499999 23.501155 -31.166697
v 17.499999 23.501155 -48.000009
v 17.499999 47.999964 -52.000008
v 17.499999 47.999964 -68.833323
v 17.499999 23.501155 -52.000008
v 17.499999 23.501155 -68.833323
v 17.499999 76.498828 -31.166697
v 17.499999 76.498828 -48.000014
v 17.499999 51.999960 -31.166697
v 17.499999 51.999960 -48.000009
v 17.499999 76.498828 -52.000008
v 17.499999 76.498828 -68.833323
v 17.499999 51.999960 -52.000008
v 17.499999 51.999960 -68.833323
vt 0.375000 0.000000
vt 0.625000 0.000000
vt 0.375000 0.250000
vt 0.625000 0.250000
vt 0.375000 0.500000
vt 0.625000 0.500000
vt 0.375000 0.750000
vt 0.625000 0.750000
vt 0.375000 1.000000
vt 0.625000 1.000000
vt 0.875000 0.000000
vt 0.875000 0.250000
vt 0.125000 0.000000
vt 0.125000 0.250000
vt 0.625000 0.000000
vt 0.875000 0.000000
vt 0.875000 0.250000
vt 0.625000 0.250000
vt 0.625000 0.000000
vt 0.875000 0.000000
vt 0.875000 0.250000
vt 0.625000 0.250000
vt 0.302083 0.250000
vt 0.375000 0.322917
vt 0.302083 0.000000
vt 0.375000 0.927083
vt 0.625000 0.927083
vt 0.697917 0.000000
vt 0.625000 0.322917
vt 0.697917 0.250000
vt 0.197917 0.250000
vt 0.375000 0.427083
vt 0.197917 0.000000
vt 0.375000 0.822917
vt 0.625000 0.822917
vt 0.802083 0.000000
vt 0.625000 0.427083
vt 0.802083 0.250000
vt 0.250000 0.250000
vt 0.375000 0.375000
vt 0.250000 0.000000
vt 0.375000 0.875000
vt 0.625000 0.875000
vt 0.750000 0.000000
vt 0.625000 0.375000
vt 0.750000 0.250000
vt 0.302083 0.203125
vt 0.250000 0.203125
vt 0.197917 0.203125
vt 0.302083 0.125000
vt 0.250000 0.125000
vt 0.197917 0.125000
vt 0.302083 0.046875
vt 0.250000 0.046875
vt 0.197917 0.046875
vt 0.697917 0.046875
vt 0.750000 0.046875
vt 0.802083 0.046875
vt 0.697917 0.125000
vt 0.750000 0.125000
vt 0.802083 0.125000
vt 0.697917 0.203125
vt 0.750000 0.203125
vt 0.802083 0.203125
vt 0.302083 0.203125
vt 0.250000 0.203125
vt 0.250000 0.125000
vt 0.302083 0.125000
vt 0.250000 0.203125
vt 0.197917 0.203125
vt 0.197917 0.125000
vt 0.250000 0.125000
vt 0.302083 0.125000
vt 0.250000 0.125000
vt 0.250000 0.046875
vt 0.302083 0.046875
vt 0.250000 0.125000
vt 0.197917 0.125000
vt 0.197917 0.046875
vt 0.250000 0.046875
vt 0.750000 0.125000
vt 0.697917 0.125000
vt 0.697917 0.046875
vt 0.750000 0.046875
vt 0.802083 0.125000
vt 0.750000 0.125000
vt 0.750000 0.046875
vt 0.802083 0.046875
vt 0.750000 0.203125
vt 0.697917 0.203125
vt 0.697917 0.125000
vt 0.750000 0.125000
vt 0.802083 0.203125
vt 0.750000 0.203125
vt 0.750000 0.125000
vt 0.802083 0.125000
vt 0.000001 0.000000
vt 1.000000 0.000000
vt 0.999997 0.816364
vt 0.000000 0.816364
vt 0.000000 0.000000
vt 0.841666 0.000000
vt 0.841666 1.000000
vt 0.000000 1.000000
vt 0.000000 0.000000
vt 0.999999 0.000000
vt 1.000000 0.816364
vt 0.000003 0.816364
vt 0.000000 0.000000
vt 0.841666 0.000000
vt 0.841666 1.000000
vt 0.000000 1.000000
vt 0.000000 0.000000
vt 0.841666 0.000000
vt 0.841666 1.000000
vt 0.000000 1.000000
vt 0.000000 0.000000
vt 0.999997 0.000000
vt 1.000000 0.816364
vt 0.000001 0.816364
vt 0.000000 0.000000
vt 0.841666 0.000000
vt 0.841666 1.000000
vt 0.000000 1.000000
vt 0.000001 0.000000
vt 1.000000 0.000000
vt 0.999997 0.816364
vt 0.000000 0.816364
vt 0.000000 0.000000
vt 0.999999 0.000000
vt 1.000000 0.816364
vt 0.000003 0.816364
vt 0.000000 0.000000
vt 0.841666 0.000000
vt 0.841666 1.000000
vt 0.000000 1.000000
vt 0.000003 0.000000
vt 1.000000 0.000000
vt 0.999999 0.816364
vt 0.000000 0.816364
vt 0.000000 0.000000
vt 0.841666 0.000000
vt 0.841666 1.000000
vt 0.000000 1.000000
vt 0.000000 0.000000
vt 0.841666 0.000000
vt 0.841666 1.000000
vt 0.000000 1.000000
vt 0.000000 0.000000
vt 0.999997 0.000000
vt 1.000000 0.816364
vt 0.000001 0.816364
vt 0.000000 0.000000
vt 0.841666 0.000000
vt 0.841666 1.000000
vt 0.000000 1.000000
vt 0.000003 0.000000
vt 1.000000 0.000000
vt 0.999999 0.816364
vt 0.000000 0.816364
vn 0.000000 0.000000 1.000000
vn 0.000000 0.000000 1.000000
vn 0.000000 0.000000 1.000000
vn 0.000000 0.000000 1.000000
vn 0.000000 1.000000 0.000000
vn 0.000000 1.000000 0.000000
vn 0.000000 1.000000 0.000000
vn 0.000000 1.000000 0.000000
vn 0.000000 0.000000 -1.000000
vn 0.000000 0.000000 -1.000000
vn 0.000000 0.000000 -1.000000
vn 0.000000 0.000000 -1.000000
vn 0.000000 -1.000000 0.000000
vn 0.000000 -1.000000 0.000000
vn 0.000000 -1.000000 0.000000
vn 0.000000 -1.000000 0.000000
vn 1.000000 0.000000 0.000000
vn 1.000000 0.000000 0.000000
vn 1.000000 0.000000 0.000000
vn 1.000000 0.000000 0.000000
vn -1.000000 0.000000 0.000000
vn -1.000000 0.000000 0.000000
vn -1.000000 0.000000 0.000000
vn -1.000000 0.000000 0.000000
vn -1.000000 0.000000 0.000000
vn -1.000000 0.000000 0.000000
vn -1.000000 0.000000 0.000000
vn 1.000000 0.000000 0.000000
vn 0.000000 0.000000 0.000000
vn 0.000000 0.000000 0.000000
vn 1.000000 0.000000 0.000000
vn 1.000000 0.000000 -0.000000
vn 1.000000 0.000000 -0.000000
vn 1.000000 -0.000000 -0.000000
vn 1.000000 0.000000 0.000000
vn 0.000000 0.000000 0.000000
vn 0.000000 0.000000 0.000000
vn 1.000000 0.000000 0.000000
vn 0.000000 0.000000 0.000000
vn 0.000000 0.000000 0.000000
vn 0.000000 0.000000 0.000000
vn 0.000000 0.000000 0.000000
vn 0.000000 -1.000000 0.000000
vn 0.000000 -1.000000 0.000000
vn 0.000000 -1.000000 0.000000
vn 0.000000 -1.000000 0.000000
vn 0.000000 0.000000 -1.000000
vn 0.000000 0.000000 -1.000000
vn 0.000000 0.000000 -1.000000
vn 0.000000 0.000000 -1.000000
vn 0.000000 1.000000 0.000000
vn 0.000000 1.000000 0.000000
vn 0.000000 1.000000 0.000000
vn 0.000000 1.000000 0.000000
vn 0.000000 0.000000 1.000000
vn 0.000000 0.000000 1.000000
vn 0.000000 0.000000 1.000000
vn 0.000000 0.000000 1.000000
vn -1.000000 0.000000 0.000000
vn -1.000000 0.000000 0.000000
vn 0.000000 -1.000000 0.000000
vn 0.000000 -1.000000 0.000000
vn 1.000000 -0.000000 0.000000
vn 1.000000 0.000000 0.000000
vn 0.000000 1.000000 0.000000
vn 0.000000 1.000000 0.000000
vn -1.000000 0.000000 0.000000
vn -1.000000 0.000000 0.000000
vn -1.000000 0.000000 0.000000
vn -1.000000 0.000000 0.000000
vn -1.000000 0.000000 0.000000
vn -1.000000 0.000000 0.000000
vn -1.000000 0.000000 0.000000
vn 0.000000 -1.000000 0.000000
vn 0.000000 -1.000000 0.000000
vn 0.000000 -1.000000 0.000000
vn 0.000000 -1.000000 0.000000
vn 1.000000 0.000000 0.000000
vn 1.000000 -0.000000 0.000000
vn 1.000000 0.000000 0.000000
vn 1.000000 0.000000 0.000000
vn 1.000000 0.000000 0.000000
vn 1.000000 0.000000 0.000000
vn 1.000000 0.000000 0.000000
vn 0.000000 1.000000 0.000000
vn 0.000000 1.000000 0.000000
vn 0.000000 1.000000 0.000000
vn 0.000000 1.000000 0.000000
vn -1.000000 0.000000 0.000000
vn -1.000000 0.000000 0.000000
vn 1.000000 0.000000 -0.000000
vn 1.000000 0.000000 0.000000
vn -0.252939 -0.547894 0.797392
vn -0.252939 -0.547894 -0.797392
vn -1.000000 0.000000 0.000000
vn -0.252936 0.547893 0.797393
vn -0.252936 0.547893 -0.797393
vn -0.252940 -0.547894 0.797392
vn -0.252939 -0.547894 -0.797392
vn -0.252937 0.547893 0.797393
vn -0.252936 0.547893 -0.797393
vn -0.252941 -0.547894 0.797391
vn -0.252942 -0.547894 -0.797391
vn -0.252939 0.547893 0.797393
vn -0.252939 0.547893 -0.797393
vn -0.252942 -0.547894 0.797391
vn -0.252942 -0.547894 -0.797391
vn -0.252939 0.547893 0.797392
vn -0.252939 0.547893 -0.797392
vn 1.000000 -0.000000 0.000000
vn 0.252936 -0.547893 -0.797393
vn 0.252936 -0.547893 0.797393
vn 0.252940 0.547894 -0.797392
vn 0.252939 0.547894 0.797392
vn 0.252936 -0.547893 -0.797393
vn 0.252937 -0.547893 0.797393
vn 0.252939 0.547894 -0.797392
vn 0.252940 0.547894 0.797392
vn 0.252939 -0.547893 -0.797392
vn 0.252938 -0.547894 0.797392
vn 0.252942 0.547894 -0.797391
vn 0.252941 0.547894 0.797391
vn 0.252939 -0.547893 -0.797392
vn 0.252939 -0.547894 0.797392
vn 0.252942 0.547894 -0.797391
vn 0.252942 0.547894 0.797391
s off
g pCube1
usemtl initialShadingGroup
f 1/1/1 2/2/2 4/4/3 3/3/4
s 1
f 3/3/5 4/4/6 20/29/7 17/24/8
s off
f 5/5/9 6/6/10 8/8/11 7/7/12
s 2
f 18/26/13 19/27/14 2/10/15 1/9/16
s off
f 14/19/17 13/20/18 15/21/19 16/22/20
s 3
f 17/23/21 29/47/22 32/50/23 35/53/24 18/25/25 1/1/26 3/3/27
f 9/16/28 10/15/29 2/2/30 19/28/31 38/56/32 41/59/33 44/62/34 20/30/35 4/4/36 12/18/37 11/17/38
s off
f 4/4/39 2/2/40 10/15/41 12/18/42
f 10/15/43 9/16/44 13/20/45 14/19/46
f 9/16/47 11/17/48 15/21/49 13/20/50
f 11/17/51 12/18/52 16/22/53 15/21/54
f 12/18/55 10/15/56 14/19/57 16/22/58
s 3
f 35/53/24 36/54/59 26/41/60 18/25/25
s 2
f 26/42/61 27/43/62 19/27/14 18/26/13
s 3
f 20/30/35 44/62/34 45/63/63 28/46/64
s 1
f 17/24/8 20/29/7 28/45/65 25/40/66
s 3
f 7/13/67 22/33/68 37/55/69 34/52/70 31/49/71 21/31/72 5/14/73
s 2
f 7/7/74 8/8/75 23/35/76 22/34/77
s 3
f 24/38/78 46/64/79 43/61/80 40/58/81 23/36/82 8/11/83 6/12/84
s 1
f 21/32/85 24/37/86 6/6/87 5/5/88
s 3
f 36/54/59 37/55/69 22/33/68 26/41/60
s 2
f 22/34/77 23/35/76 27/43/62 26/42/61
s 3
f 28/46/64 45/63/63 46/64/79 24/38/78
s 1
f 25/40/66 28/45/65 24/37/86 21/32/85
s 3
f 25/39/89 30/48/90 29/47/22 17/23/21
f 21/31/72 31/49/71 30/48/90 25/39/89
f 39/57/91 38/56/32 19/28/31 27/44/92
f 40/58/81 39/57/91 27/44/92 23/36/82
f 29/47/22 30/48/90 48/66/93 47/65/94
f 30/48/90 33/51/95 49/67/96 48/66/93
f 33/51/95 32/50/23 50/68/97 49/67/96
f 32/50/23 29/47/22 47/65/94 50/68/97
f 30/48/90 31/49/71 52/70/98 51/69/99
f 31/49/71 34/52/70 53/71/100 52/70/98
f 34/52/70 33/51/95 54/72/101 53/71/100
f 33/51/95 30/48/90 51/69/99 54/72/101
f 32/50/23 33/51/95 56/74/102 55/73/103
f 33/51/95 36/54/59 57/75/104 56/74/102
f 36/54/59 35/53/24 58/76/105 57/75/104
f 35/53/24 32/50/23 55/73/103 58/76/105
f 33/51/95 34/52/70 60/78/106 59/77/107
f 34/52/70 37/55/69 61/79/108 60/78/106
f 37/55/69 36/54/59 62/80/109 61/79/108
f 36/54/59 33/51/95 59/77/107 62/80/109
f 42/60/110 41/59/33 63/82/111 64/81/112
f 41/59/33 38/56/32 65/83/113 63/82/111
f 38/56/32 39/57/91 66/84/114 65/83/113
f 39/57/91 42/60/110 64/81/112 66/84/114
f 43/61/80 42/60/110 67/86/115 68/85/116
f 42/60/110 39/57/91 69/87/117 67/86/115
f 39/57/91 40/58/81 70/88/118 69/87/117
f 40/58/81 43/61/80 68/85/116 70/88/118
f 45/63/63 44/62/34 71/90/119 72/89/120
f 44/62/34 41/59/33 73/91/121 71/90/119
f 41/59/33 42/60/110 74/92/122 73/91/121
f 42/60/110 45/63/63 72/89/120 74/92/122
f 46/64/79 45/63/63 75/94/123 76/93/124
f 45/63/63 42/60/110 77/95/125 75/94/123
f 42/60/110 43/61/80 78/96/126 77/95/125
f 43/61/80 46/64/79 76/93/124 78/96/126
f 71/97/119 73/98/121 50/99/97 47/100/94
f 47/101/94 48/102/93 72/103/120 71/104/119
f 74/105/122 72/106/120 48/107/93 49/108/96
f 73/109/121 74/110/122 49/111/96 50/112/97
f 53/113/100 54/114/101 77/115/125 78/116/126
f 52/117/98 53/118/100 78/119/126 76/120/124
f 76/121/124 75/122/123 51/123/99 52/124/98
f 75/125/123 77/126/125 54/127/101 51/128/99
f 60/129/106 61/130/108 70/131/118 68/132/116
f 59/133/107 60/134/106 68/135/116 67/136/115
f 67/137/115 69/138/117 62/139/109 59/140/107
f 69/141/117 70/142/118 61/143/108 62/144/109
f 65/145/113 66/146/114 57/147/104 58/148/105
f 66/149/114 64/150/112 56/151/102 57/152/104
f 64/153/112 63/154/111 55/155/103 56/156/102
f 63/157/111 65/158/113 58/159/105 55/160/103
